<?xml version="1.0" ?><!DOCTYPE svg  PUBLIC '-//W3C//DTD SVG 1.1//EN'  'http://www.w3.org/Graphics/SVG/1.1/DTD/svg11.dtd'><svg enable-background="new 0 0 64 64" height="64px" id="Layer_1" version="1.1" viewBox="0 0 64 64" width="64px" xml:space="preserve" xmlns="http://www.w3.org/2000/svg" xmlns:xlink="http://www.w3.org/1999/xlink"><g id="share_2_"><g id="responsive_design"><g id="responsive_design_1_"><path d="M19,24h-6c-0.276,0-0.5-0.224-0.5-0.5S12.724,23,13,23h6c0.276,0,0.5,0.224,0.5,0.5S19.276,24,19,24z" fill="#37474F"/><path d="M16,53c-1.105,0-2,0.895-2,2s0.895,2.001,2,2.001s2-0.896,2-2.001S17.105,53,16,53z M16.707,55.708     c-0.189,0.188-0.439,0.293-0.707,0.293c-0.552,0-1-0.448-1-1.001c0-0.551,0.448-1,1-1c0.551,0,1,0.449,1,1.001     C17,55.268,16.896,55.52,16.707,55.708z" fill="#37474F"/><path d="M26,36.737V57c0,0.551-0.449,1-1,1H7c-0.551,0-1-0.449-1-1V23c0-0.551,0.449-1,1-1h18     c0.551,0,1,0.449,1,1v10.521l1-0.388V23c0-1.1-0.9-2-2-2H7c-1.1,0-2,0.9-2,2v34c0,1.1,0.9,2,2,2h18c1.1,0,2-0.9,2-2V36.351     L26,36.737z" fill="#37474F"/><polygon fill="#37474F" points="24,37.512 24,50 8,50 8,27 24,27 24,34.295 25,33.908 25,26 7,26 7,51 25,51 25,37.124    "/><g><path d="M10.747,10H7c-1.1,0-2,0.9-2,2v8.78c0.289-0.261,0.627-0.463,1-0.597V12c0-0.551,0.449-1,1-1h3.564      C10.604,10.659,10.667,10.327,10.747,10z" fill="#37474F"/><path d="M57,10H27.253c0.079,0.327,0.143,0.659,0.183,1H57c0.551,0,1,0.449,1,1v32H28v1h30v2      c0,0.551-0.449,1-1,1H28v1h9.246l1.428,5H28v1h15c0.551,0,1,0.449,1,1H28v1h17v-1c0-1.104-0.896-2-2-2h-3.285l-1.43-5H57      c1.1,0,2-0.9,2-2V12C59,10.9,58.1,10,57,10z" fill="#37474F"/><g><path d="M10.5,12H7v8h1v-7h2.564C10.525,12.672,10.5,12.339,10.5,12z" fill="#37474F"/><path d="M27.5,12c0,0.339-0.025,0.672-0.064,1H56v28H28v1h29V12H27.5z" fill="#37474F"/></g></g></g></g><g id="share_1_"><g><path d="M19,19.5c-4.136,0-7.5-3.364-7.5-7.5s3.364-7.5,7.5-7.5s7.5,3.364,7.5,7.5S23.136,19.5,19,19.5z M19,5.5     c-3.584,0-6.5,2.916-6.5,6.5s2.916,6.5,6.5,6.5s6.5-2.916,6.5-6.5S22.584,5.5,19,5.5z" fill="#37474F"/></g><path d="M16,44.5c-3.033,0-5.5-2.468-5.5-5.5s2.467-5.5,5.5-5.5s5.5,2.468,5.5,5.5S19.033,44.5,16,44.5z M16,34.5    c-2.481,0-4.5,2.019-4.5,4.5s2.019,4.5,4.5,4.5s4.5-2.019,4.5-4.5S18.481,34.5,16,34.5z" fill="#37474F"/><g><g><path d="M41.246,28.691l-20.807,8.055c0.151,0.295,0.271,0.605,0.361,0.932l20.809-8.055      C41.465,29.324,41.341,29.015,41.246,28.691z" fill="#37474F"/><path d="M47,33.5c-3.584,0-6.5-2.916-6.5-6.5s2.916-6.5,6.5-6.5s6.5,2.916,6.5,6.5S50.584,33.5,47,33.5z       M47,21.5c-3.033,0-5.5,2.468-5.5,5.5s2.467,5.5,5.5,5.5s5.5-2.468,5.5-5.5S50.033,21.5,47,21.5z" fill="#37474F"/></g><path d="M25.387,14.854c-0.137,0.307-0.296,0.6-0.474,0.881l16.581,8.883c0.134-0.309,0.293-0.602,0.475-0.881     L25.387,14.854z" fill="#37474F"/></g></g></g></svg>